<?xml version="1.0" standalone="no"?>
<!DOCTYPE svg PUBLIC "-//W3C//DTD SVG 20010904//EN"
 "http://www.w3.org/TR/2001/REC-SVG-20010904/DTD/svg10.dtd">
<svg version="1.0" xmlns="http://www.w3.org/2000/svg"
 width="500.000000pt" height="500.000000pt" viewBox="0 0 500.000000 500.000000"
 preserveAspectRatio="xMidYMid meet">

<g transform="translate(0.000000,500.000000) scale(0.100000,-0.100000)"
fill="#000000" stroke="none">
<path d="M1740 3580 c-113 -24 -215 -107 -240 -195 -39 -138 31 -255 245 -408
l100 -72 -40 -3 c-66 -4 -187 -33 -244 -58 -29 -13 -55 -24 -57 -24 -1 0 -5
12 -7 28 -4 26 -4 25 -6 -5 -1 -27 -10 -38 -56 -68 -73 -49 -177 -163 -223
-244 -63 -113 -85 -206 -85 -351 0 -104 4 -138 24 -205 38 -123 90 -208 188
-305 71 -71 103 -94 181 -132 203 -100 425 -103 621 -11 191 90 437 329 604
586 37 57 56 77 72 77 12 0 57 -14 100 -31 106 -43 201 -55 306 -41 207 30
307 144 295 336 -7 111 -65 201 -185 293 -48 37 -31 47 69 41 138 -8 239 -75
296 -196 37 -77 38 -202 4 -276 -34 -75 -84 -129 -153 -166 -51 -27 -79 -35
-148 -40 l-86 -7 72 -2 c52 -1 88 5 128 20 73 27 156 104 192 177 25 50 28 68
28 152 0 76 -4 104 -22 142 -29 63 -106 144 -168 176 -45 25 -61 27 -166 28
l-116 1 -109 74 c-188 128 -264 224 -264 336 0 127 68 187 210 186 146 -1 269
-100 314 -254 9 -29 16 -72 16 -96 0 -24 5 -43 10 -43 6 0 10 75 10 205 0 130
-4 205 -10 205 -5 0 -10 -11 -10 -25 0 -26 -25 -45 -60 -45 -11 0 -47 14 -80
30 -153 77 -304 78 -443 2 -135 -73 -182 -226 -112 -368 32 -65 129 -157 266
-254 57 -40 105 -74 107 -75 2 -2 -35 -54 -81 -117 -46 -63 -108 -154 -138
-201 -30 -48 -56 -87 -59 -87 -3 0 -17 19 -32 43 -40 64 -70 163 -76 255 -2
45 -9 85 -13 88 -5 3 -9 -114 -9 -260 0 -171 4 -266 10 -266 6 0 10 9 10 20 0
19 33 44 51 38 5 -2 -17 -42 -50 -90 -131 -192 -270 -342 -424 -457 -168 -126
-276 -165 -457 -165 -91 -1 -132 4 -195 22 -234 67 -410 245 -486 492 -27 88
-32 259 -10 350 20 83 93 227 152 298 47 58 158 152 180 152 5 0 9 -91 9 -202
1 -153 3 -198 12 -183 29 54 67 57 178 15 108 -42 182 -53 281 -40 192 24 279
113 279 285 0 99 -19 144 -92 221 -29 31 -116 100 -193 152 -77 53 -163 118
-191 144 -85 80 -121 181 -94 264 25 78 73 108 175 108 164 0 297 -125 312
-294 12 -125 23 -65 23 120 0 125 -3 189 -10 185 -5 -3 -10 -14 -10 -25 0 -41
-61 -40 -159 5 -86 38 -182 51 -261 35z m62 -702 c-7 -7 -12 -24 -12 -38 0
-34 17 -50 52 -50 33 0 62 37 51 66 -6 17 -5 18 13 4 114 -88 169 -158 180
-228 13 -83 -26 -161 -101 -200 -45 -23 -161 -28 -226 -8 -135 39 -229 164
-246 327 l-6 59 46 20 c98 44 279 78 249 48z m1390 -268 c74 -62 134 -134 149
-178 18 -55 7 -144 -23 -190 -42 -63 -102 -87 -218 -87 -82 0 -103 4 -150 27
-30 14 -68 37 -84 50 l-28 24 100 149 c96 145 178 255 189 255 3 0 32 -23 65
-50z"/>
<path d="M1317 1983 c-16 -15 -6 -41 18 -47 14 -4 25 -11 25 -16 0 -16 -21
-22 -36 -9 -8 6 -17 10 -19 7 -12 -12 26 -30 50 -24 37 9 33 41 -7 55 -24 9
-29 14 -20 23 9 9 15 9 24 0 17 -17 33 -15 18 3 -13 16 -42 20 -53 8z"/>
<path d="M1530 1965 c-6 -14 -14 -36 -20 -50 -6 -16 -6 -25 0 -25 6 0 10 5 10
10 0 15 48 12 53 -2 2 -7 7 -10 11 -7 7 7 -29 99 -39 99 -3 0 -10 -11 -15 -25z
m30 -26 c0 -5 -7 -9 -15 -9 -9 0 -12 6 -9 15 6 15 24 11 24 -6z"/>
<path d="M1722 1938 c1 -38 2 -43 5 -20 4 28 7 31 19 21 17 -14 18 -8 2 26
-18 40 -28 29 -26 -27z"/>
<path d="M1768 1953 c-5 -42 -1 -63 13 -63 5 0 9 23 9 50 0 58 -16 67 -22 13z"/>
<path d="M1940 1950 c0 -29 -4 -40 -15 -40 -8 0 -15 -4 -15 -10 0 -14 23 -13
38 2 14 14 16 88 2 88 -5 0 -10 -18 -10 -40z"/>
<path d="M2102 1940 c-12 -27 -17 -50 -11 -50 5 0 9 5 9 10 0 14 43 13 58 -2
7 -7 12 -8 12 -3 0 17 -33 95 -40 95 -4 0 -17 -22 -28 -50z m38 5 c0 -8 -7
-15 -15 -15 -9 0 -12 6 -9 15 4 8 10 15 15 15 5 0 9 -7 9 -15z"/>
<path d="M2305 1970 c9 -10 21 -34 25 -52 7 -29 8 -30 9 -7 1 14 8 34 16 45
21 27 18 40 -4 20 -16 -15 -19 -15 -31 -1 -7 8 -17 15 -23 15 -5 0 -2 -9 8
-20z"/>
<path d="M2940 1974 c-12 -14 -12 -18 5 -30 10 -8 25 -14 32 -14 7 0 13 -4 13
-9 0 -17 -21 -23 -36 -10 -8 6 -18 9 -21 5 -11 -10 19 -27 42 -24 12 2 21 12
23 25 3 17 -3 24 -22 29 -27 6 -33 18 -16 29 6 4 18 1 27 -7 14 -11 16 -11 11
2 -7 21 -42 24 -58 4z"/>
<path d="M3146 1974 c-9 -8 -16 -24 -16 -34 0 -21 25 -50 44 -50 37 0 61 48
40 79 -18 25 -46 27 -68 5z m59 -34 c0 -18 -6 -26 -23 -28 -13 -2 -25 3 -28
12 -10 26 4 48 28 44 17 -2 23 -10 23 -28z"/>
<path d="M3350 1940 c0 -27 5 -50 10 -50 6 0 10 9 10 20 0 11 7 20 15 20 8 0
15 5 15 10 0 6 -7 10 -15 10 -8 0 -15 5 -15 10 0 6 7 10 15 10 8 0 15 5 15 10
0 6 -11 10 -25 10 -23 0 -25 -3 -25 -50z"/>
<path d="M3520 1980 c0 -5 7 -10 15 -10 11 0 15 -11 15 -40 0 -22 5 -40 10
-40 6 0 10 18 10 40 0 29 4 40 15 40 8 0 15 5 15 10 0 6 -18 10 -40 10 -22 0
-40 -4 -40 -10z"/>
<path d="M3714 1973 c2 -10 8 -33 11 -51 8 -41 26 -37 39 9 l9 34 15 -37 c18
-47 28 -48 37 -5 4 17 9 40 11 50 3 9 1 17 -4 17 -5 0 -13 -15 -17 -32 l-7
-33 -14 33 c-17 38 -28 35 -39 -10 l-7 -33 -10 38 c-6 20 -14 37 -20 37 -5 0
-7 -8 -4 -17z"/>
<path d="M3976 1947 c-19 -51 -20 -65 -4 -49 15 15 58 16 58 2 0 -5 4 -10 9
-10 6 0 1 23 -11 50 -11 28 -24 50 -28 50 -4 0 -15 -19 -24 -43z m38 -2 c3 -9
0 -15 -9 -15 -8 0 -15 7 -15 15 0 8 4 15 9 15 5 0 11 -7 15 -15z"/>
<path d="M4170 1940 c0 -27 5 -50 10 -50 6 0 10 8 10 18 1 15 2 15 15 -2 8
-11 18 -16 22 -13 4 4 2 12 -4 18 -8 8 -9 16 -1 29 16 25 3 50 -27 50 -23 0
-25 -3 -25 -50z m45 20 c0 -7 -6 -15 -12 -17 -8 -3 -13 4 -13 17 0 13 5 20 13
18 6 -3 12 -11 12 -18z"/>
<path d="M4360 1940 c0 -47 2 -50 25 -50 14 0 25 5 25 10 0 6 -7 10 -15 10 -8
0 -15 5 -15 10 0 6 7 10 15 10 8 0 15 5 15 10 0 6 -7 10 -15 10 -8 0 -15 5
-15 10 0 6 7 10 15 10 8 0 15 5 15 10 0 6 -11 10 -25 10 -23 0 -25 -3 -25 -50z"/>
</g>
</svg>
